<svg width="32" height="32" viewBox="0 0 32 32" fill="none" xmlns="http://www.w3.org/2000/svg">
<path d="M23.2334 0.5C27.7931 0.5 31.5 4.2184 31.5 8.78711C31.5 11.8485 29.8544 14.5644 27.3027 16C29.8544 17.4356 31.5 20.1515 31.5 23.2129C31.5 27.7816 27.7931 31.5 23.2334 31.5C20.177 31.4999 17.4272 29.7932 16 27.2158C14.5726 29.7932 11.8228 31.4999 8.7666 31.5C4.20693 31.5 0.5 27.7816 0.5 23.2129C0.5 20.1518 2.14506 17.4357 4.69629 16C2.14506 14.5643 0.5 11.8482 0.5 8.78711C0.5 4.2184 4.20693 0.5 8.7666 0.5C11.8225 0.50011 14.5725 2.20623 16 4.7832C17.4273 2.2062 20.1773 0.500109 23.2334 0.5ZM23.2334 2.25C20.1679 2.25014 17.4837 4.4331 16.8555 7.43848C16.7712 7.84322 16.4145 8.13477 16 8.13477C15.5855 8.13472 15.2288 7.84319 15.1445 7.43848C14.5161 4.4331 11.8321 2.25014 8.7666 2.25C5.17409 2.25 2.24805 5.18162 2.24805 8.78711C2.24805 11.8429 4.31979 14.4559 7.28711 15.1475C7.68421 15.2397 7.96289 15.5948 7.96289 16C7.96289 16.4055 7.68361 16.7595 7.28613 16.8516C4.31918 17.5434 2.24805 20.1573 2.24805 23.2129C2.24805 26.8184 5.17409 29.75 8.7666 29.75C11.8321 29.7499 14.5161 27.5669 15.1445 24.5615L15.1885 24.415C15.3189 24.0883 15.6374 23.8653 16 23.8652C16.3626 23.8652 16.681 24.0883 16.8115 24.415L16.8555 24.5615L16.9199 24.8408C17.6514 27.7013 20.2637 29.7499 23.2334 29.75C26.8259 29.75 29.752 26.8184 29.752 23.2129C29.752 20.1571 27.6802 17.5441 24.7129 16.8525C24.3158 16.7603 24.0371 16.4052 24.0371 16C24.0371 15.5948 24.3158 15.2397 24.7129 15.1475C27.6802 14.4559 29.752 11.8429 29.752 8.78711C29.752 5.18162 26.8259 2.25 23.2334 2.25Z" fill="#3DB370" stroke="#3DB370"/>
</svg>
