<svg width="39" height="36" viewBox="0 0 39 36" fill="none" xmlns="http://www.w3.org/2000/svg">
<path d="M33.2795 16.5316C34.0538 17.7861 33.1253 19.3616 31.5777 19.4175C25.9265 19.6244 20.1644 20.9448 14.7319 23.5443L12.9356 24.514C12.9356 24.5216 12.9108 24.4744 17.2839 31.5894C17.6851 32.2404 17.447 33.072 16.7518 33.4481L15.335 34.2132C14.6399 34.5885 13.7502 34.3657 13.3489 33.7147L8.98693 26.6469L8.2789 27.0298C6.88787 27.7806 5.10932 27.3349 4.30603 26.0336L1.03472 20.7331C0.232233 19.4318 0.708558 17.768 2.09959 17.0165L8.55259 13.5309C13.4842 10.5465 17.6632 6.59498 20.7958 1.94661C21.6217 0.720807 23.5439 0.756305 24.3182 2.0108L27.1172 6.54695C28.7254 5.67839 30.7825 6.19423 31.7109 7.69873C32.6393 9.20322 32.0879 11.1269 30.4797 11.9954L33.2795 16.5316Z" fill="#D1E7FF"/>
<path d="M31.7108 7.69873C32.6392 9.20324 32.0878 11.1269 30.4796 11.9955L27.1171 6.54694C28.7253 5.67837 30.7824 6.19422 31.7108 7.69873Z" fill="#D1E7FF"/>
<path d="M24.3181 2.01078C24.7044 2.63719 24.6797 3.41429 24.2522 4.01684C20.8039 8.87751 16.1821 13.2696 10.5297 16.6909L2.96909 20.7746C2.44997 21.0556 2.03904 21.4446 1.75163 21.8939L1.03472 20.7331C0.232233 19.4318 0.708558 17.7679 2.09959 17.0164L8.55259 13.5309C13.4842 10.5465 17.6632 6.59494 20.7958 1.94658C21.6217 0.72078 23.5439 0.756353 24.3181 2.01078Z" fill="#E8F3FF"/>
<path d="M8.55259 13.531L14.7319 23.5443C13.4936 24.2128 9.51541 26.3612 8.2789 27.0299C6.88787 27.7806 5.10932 27.335 4.30603 26.0337L1.03472 20.7332C0.232233 19.4319 0.708558 17.7681 2.09959 17.0166L8.55259 13.531Z" fill="#B9DCFF"/>
<path d="M10.5094 16.7023C2.29841 21.1369 2.84256 20.8283 2.57767 21.0212C2.07882 21.3842 1.35077 21.2452 1.03454 20.7332C0.23205 19.4319 0.708375 17.768 2.09941 17.0165L8.55241 13.531L10.5094 16.7023Z" fill="#D1E7FF"/>
<path d="M14.1118 26.428C11.8145 27.6725 13.5047 26.7567 10.1672 28.5586L8.98688 26.6471L12.9355 24.515L14.1118 26.428Z" fill="#B9DCFF"/>
<path d="M31.5098 11.1313C31.2434 11.4735 30.897 11.7703 30.4796 11.9954L27.1171 6.54696C27.5345 6.32114 27.9826 6.18972 28.4322 6.14441C28.6015 6.41872 31.3621 10.8922 31.5098 11.1313Z" fill="#B9DCFF"/>
<path d="M31.3357 12.5215C33.8562 10.5404 32.9856 6.62262 29.836 5.81066C29.013 5.5985 28.161 5.64263 27.38 5.92889L24.8774 1.75793C23.859 0.0605986 21.3333 0.0156194 20.2489 1.67053C17.1708 6.36843 13.07 10.3641 8.2015 13.3962C7.92426 13.5685 7.82149 13.9246 7.98554 14.2144C8.01185 14.2608 12.1572 21.1688 12.1846 21.2145C12.3629 21.5116 12.7577 21.6137 13.0669 21.442C13.3758 21.2704 13.4816 20.8903 13.3033 20.593L9.41597 14.1141C14.0582 11.1279 18.1696 7.17449 21.3416 2.33342C21.9089 1.46747 23.2276 1.49435 23.7587 2.37941L32.7197 17.3144C33.2515 18.2006 32.614 19.3118 31.5526 19.3516C25.598 19.5748 19.768 21.0403 14.4377 23.6636C14.415 23.6747 8.37168 27.0326 7.9555 27.2638C6.87521 27.864 5.48902 27.5066 4.86544 26.4671L1.59405 21.0146C0.97039 19.9752 1.34184 18.6414 2.42205 18.0412L6.35933 15.8539C6.66821 15.6823 6.77405 15.3022 6.59571 15.0049C6.41737 14.7076 6.02227 14.6059 5.71346 14.7775L1.77619 16.9648C0.0791766 17.9076 -0.504362 20.0031 0.475415 21.6361L3.74688 27.0885C4.72674 28.7216 6.90452 29.2829 8.60153 28.3401L8.75048 28.2574L12.7895 34.989C13.3696 35.9559 14.6525 36.2871 15.6579 35.7286L17.0746 34.9416C18.0797 34.3832 18.4234 33.1487 17.8431 32.1815L14.9806 27.4106C14.8022 27.1134 14.4072 27.0116 14.0983 27.1832C13.7894 27.3548 13.6836 27.7349 13.8619 28.0321L16.7245 32.803C16.9478 33.1751 16.8156 33.6503 16.4287 33.8651L15.0121 34.6522C14.6253 34.867 14.1315 34.7397 13.9082 34.3675L9.8692 27.6359L15.0406 24.7629C20.101 22.275 25.7307 20.8136 31.603 20.5935C33.6381 20.5171 34.8553 18.3873 33.8384 16.6928L31.3357 12.5215ZM31.1512 8.22914C31.7888 9.29186 31.5598 10.6106 30.6771 11.4239L28.0384 7.02596C29.1952 6.69945 30.5033 7.14924 31.1512 8.22914ZM37.4682 5.46613L35.7971 6.39454C35.488 6.56622 35.0931 6.46422 34.9149 6.16708C34.7365 5.86985 34.8424 5.48974 35.1513 5.31814L36.8224 4.38973C37.1315 4.21805 37.5264 4.32005 37.7046 4.61719C37.883 4.91441 37.7771 5.29452 37.4682 5.46613ZM30.2815 1.92402L30.6891 0.460752C30.7814 0.129194 31.1354 -0.0674254 31.4802 0.0212904C31.8247 0.110162 32.0292 0.450964 31.9368 0.782444L31.5293 2.24571C31.4371 2.57641 31.0839 2.77404 30.7382 2.68517C30.3937 2.5963 30.1892 2.25558 30.2815 1.92402ZM38.7287 12.1022C38.6514 12.3798 38.3904 12.5629 38.1052 12.5629C37.9883 12.5629 38.0701 12.5757 36.4169 12.1495C36.0724 12.0606 35.8679 11.7199 35.9602 11.3883C36.0526 11.0568 36.4067 10.8602 36.7512 10.9489L38.272 11.3409C38.6165 11.4298 38.8211 11.7706 38.7287 12.1022Z" fill="#007FFC"/>
</svg>
